<?xml version="1.0" encoding="UTF-8" standalone="no"?>
<!-- Created with Inkscape (http://www.inkscape.org/) -->

<svg
   version="1.1"
   id="svg9"
   width="655.35999"
   height="655.35999"
   viewBox="0 0 655.35999 655.35999"
   sodipodi:docname="delete-gray.svg"
   inkscape:version="1.1 (c68e22c387, 2021-05-23)"
   xmlns:inkscape="http://www.inkscape.org/namespaces/inkscape"
   xmlns:sodipodi="http://sodipodi.sourceforge.net/DTD/sodipodi-0.dtd"
   xmlns="http://www.w3.org/2000/svg"
   xmlns:svg="http://www.w3.org/2000/svg">
  <defs
     id="defs13" />
  <sodipodi:namedview
     id="namedview11"
     pagecolor="#ffffff"
     bordercolor="#666666"
     borderopacity="1.0"
     inkscape:pageshadow="2"
     inkscape:pageopacity="0.0"
     inkscape:pagecheckerboard="0"
     showgrid="false"
     inkscape:zoom="1.020813"
     inkscape:cx="327.67999"
     inkscape:cy="327.67999"
     inkscape:window-width="1600"
     inkscape:window-height="877"
     inkscape:window-x="-8"
     inkscape:window-y="-8"
     inkscape:window-maximized="1"
     inkscape:current-layer="g15" />
  <g
     inkscape:groupmode="layer"
     inkscape:label="Image"
     id="g15">
    <path
       style="fill:#a0a0a0;stroke:none;stroke-width:0.979611"
       d="m 122.45142,654.38037 c -0.33299,-0.53878 -2.06025,-0.97961 -3.83836,-0.97961 -3.92473,0 -13.61337,-5.01066 -17.8172,-9.2145 -1.688663,-1.68865 -4.339766,-5.4859 -5.891344,-8.43833 L 92.083466,630.3799 91.830443,400.41613 91.57742,170.45237 h 236.10257 236.10258 l -0.25303,229.96376 -0.25302,229.96377 -2.82105,5.36803 c -1.55158,2.95243 -4.30096,6.84795 -6.10973,8.65673 -4.24746,4.24746 -13.55895,8.9961 -17.6402,8.9961 -1.75534,0 -3.46398,0.44083 -3.79697,0.97961 -0.4005,0.64802 -69.86985,0.97962 -205.22858,0.97962 -135.35872,0 -204.82808,-0.3316 -205.22857,-0.97962 z m 81.22311,-67.68894 c 2.10859,-0.58545 4.45441,-1.68505 5.21293,-2.44357 0.75852,-0.75851 1.91708,-1.37911 2.5746,-1.37911 2.03546,0 9.10296,-8.05279 12.03652,-13.71456 l 2.79164,-5.38786 0.26194,-148.41112 c 0.25547,-144.75137 0.0205,-158.69704 -2.67422,-158.69704 -0.44218,0 -1.09041,-1.1413 -1.44051,-2.53622 -0.95957,-3.8232 -9.49378,-11.77533 -15.91982,-14.83401 -5.01023,-2.38477 -6.84331,-2.7118 -15.20044,-2.7118 -6.29686,0 -9.91598,0.41314 -10.72674,1.22451 -0.67298,0.67349 -1.93024,1.22452 -2.79391,1.22452 -1.84369,0 -9.33279,5.30244 -12.45229,8.8165 -1.19573,1.34696 -3.40092,4.87357 -4.90043,7.83689 l -2.72637,5.38786 v 151.83976 151.83976 l 2.84919,4.89805 c 3.01948,5.19081 10.1435,13.22476 11.7269,13.22476 0.51888,0 1.63936,0.62368 2.48997,1.38595 0.8506,0.76228 3.08944,1.82459 4.97519,2.36068 4.68375,1.33153 19.2274,1.37778 23.91585,0.076 z m 141.04974,-2.3122 c 7.03301,-4.17274 13.86181,-11.56537 14.96873,-16.20465 0.32138,-1.34697 1.07457,-3.06781 1.67376,-3.8241 1.55306,-1.96026 1.55306,-301.90795 0,-303.86821 -0.59919,-0.75629 -1.35238,-2.47713 -1.67376,-3.8241 -1.31325,-5.50405 -11.77614,-15.97646 -17.31884,-17.33459 -1.34696,-0.33004 -2.76357,-1.08324 -3.14801,-1.67376 -0.94855,-1.45705 -22.14377,-1.45705 -23.09232,0 -0.38444,0.59052 -1.80104,1.34372 -3.14801,1.67376 -5.5427,1.35813 -16.00558,11.83054 -17.31883,17.33459 -0.32138,1.34697 -1.07458,3.06781 -1.67376,3.8241 -1.55306,1.96026 -1.55306,301.90795 0,303.86821 0.59918,0.75629 1.35238,2.47713 1.67376,3.8241 1.47454,6.18005 13.16726,16.84673 20.74747,18.92688 1.07757,0.2957 6.8083,0.44482 12.73495,0.33138 9.95255,-0.19049 11.14233,-0.42377 15.57486,-3.05361 z m 130.3026,2.3122 c 2.10859,-0.58545 4.45441,-1.68505 5.21293,-2.44357 0.75852,-0.75851 1.91708,-1.37911 2.5746,-1.37911 2.03546,0 9.10296,-8.05279 12.03652,-13.71456 l 2.79164,-5.38786 V 412.41637 261.06642 l -2.77633,-5.38786 c -4.1737,-8.09968 -10.50282,-14.35764 -16.32609,-16.14253 -1.34697,-0.41286 -3.0673,-1.24773 -3.82296,-1.85527 -0.80738,-0.64913 -5.28575,-1.10462 -10.86045,-1.10462 -8.79262,0 -9.96099,0.23822 -15.97355,3.25694 -7.78818,3.91021 -12.04886,8.08834 -15.9208,15.61236 l -2.89261,5.62098 v 151.34995 151.34996 l 2.79163,5.38786 c 2.93357,5.66177 10.00106,13.71456 12.03653,13.71456 0.65751,0 1.82869,0.63321 2.60262,1.40714 0.77392,0.77392 2.89933,1.83622 4.72313,2.36068 4.56899,1.31385 19.14767,1.34745 23.80319,0.0548 z"
       id="path175" />
    <path
       style="fill:#a0a0a0;stroke:none;stroke-width:0.979611"
       d="m 57.461601,113.87982 c 0.35227,-20.324775 0.352619,-20.327543 3.273738,-26.021457 3.466046,-6.756098 8.982145,-12.189505 16.25615,-16.012454 l 5.295863,-2.78331 88.899728,-0.279276 88.89973,-0.279276 V 51.219869 c 0,-9.506297 0.41948,-18.63795 0.93219,-20.292561 0.5127,-1.654612 1.45164,-5.102304 2.08653,-7.661539 0.63489,-2.559234 1.50818,-4.653154 1.94063,-4.653154 0.43246,0 1.03725,-0.790699 1.34398,-1.75711 1.80854,-5.698202 15.42224,-14.8962823 22.04738,-14.8962823 1.97154,0 4.03668,-0.4520592 4.58919,-1.00457597 1.42089,-1.42088505 67.67004,-0.67460945 75.03172,0.84520837 7.63764,1.5767932 15.98657,7.2253022 20.00575,13.5349949 0.97673,1.533377 2.04447,3.008372 2.37275,3.277765 1.07079,0.878705 2.87702,7.084328 2.87702,9.884481 0,1.504161 0.44083,3.007284 0.97961,3.340272 0.59566,0.368132 0.97962,7.670809 0.97962,18.631471 v 18.026039 l 88.89972,0.28386 88.89973,0.283861 5.26453,2.766924 c 10.46058,5.497863 16.78744,13.590651 18.69585,23.914129 0.56084,3.03388 1.01971,12.929208 1.01971,21.989628 v 16.47347 H 327.581 57.109293 Z"
       id="path136" />
  </g>
</svg>
