<?xml version="1.0" encoding="UTF-8" standalone="no"?>
<!-- Created with Inkscape (http://www.inkscape.org/) -->

<svg
   version="1.1"
   id="svg9"
   width="512"
   height="512"
   viewBox="0 0 512 512"
   sodipodi:docname="Delete-Bin-Trash-PNG-Clipart.svg"
   inkscape:version="1.1 (c68e22c387, 2021-05-23)"
   xmlns:inkscape="http://www.inkscape.org/namespaces/inkscape"
   xmlns:sodipodi="http://sodipodi.sourceforge.net/DTD/sodipodi-0.dtd"
   xmlns="http://www.w3.org/2000/svg"
   xmlns:svg="http://www.w3.org/2000/svg">
  <defs
     id="defs13" />
  <sodipodi:namedview
     id="namedview11"
     pagecolor="#ffffff"
     bordercolor="#666666"
     borderopacity="1.0"
     inkscape:pageshadow="2"
     inkscape:pageopacity="0.0"
     inkscape:pagecheckerboard="0"
     showgrid="false"
     inkscape:zoom="1.3066406"
     inkscape:cx="256"
     inkscape:cy="194.77429"
     inkscape:window-width="1600"
     inkscape:window-height="877"
     inkscape:window-x="-8"
     inkscape:window-y="-8"
     inkscape:window-maximized="1"
     inkscape:current-layer="g15" />
  <g
     inkscape:groupmode="layer"
     inkscape:label="Image"
     id="g15">
    <path
       style="fill:#cccccc;stroke:none;stroke-width:0.765321"
       d="m 95.665172,511.23468 c -0.260147,-0.42093 -1.609571,-0.76532 -2.99872,-0.76532 -3.066191,0 -10.635439,-3.91458 -13.919687,-7.19883 -1.319266,-1.31926 -3.39044,-4.28586 -4.60261,-6.59245 L 71.940209,492.4843 71.742535,312.82511 71.544861,133.16592 H 256 440.45514 l -0.19767,179.65919 -0.19768,179.65919 -2.20394,4.19378 c -1.21218,2.30659 -3.36013,5.34997 -4.77323,6.76307 -3.31833,3.31833 -10.59293,7.02821 -13.78141,7.02821 -1.37136,0 -2.70623,0.34439 -2.96638,0.76532 C 416.02194,511.74094 361.74901,512 256,512 150.25099,512 95.978059,511.74094 95.665172,511.23468 Z m 63.455558,-52.88199 c 1.64734,-0.45738 3.48001,-1.31645 4.0726,-1.90904 0.59259,-0.59259 1.49772,-1.07743 2.01141,-1.07743 1.5902,0 7.11168,-6.29124 9.40353,-10.7145 l 2.18097,-4.20927 0.20464,-115.94619 c 0.19959,-113.08701 0.016,-123.98206 -2.08924,-123.98206 -0.34545,0 -0.85188,-0.89164 -1.1254,-1.98143 -0.74966,-2.98687 -7.41701,-9.19947 -12.43736,-11.58906 -3.91423,-1.86311 -5.34633,-2.1186 -11.87533,-2.1186 -4.91943,0 -7.74686,0.32277 -8.38027,0.95665 -0.52577,0.52616 -1.508,0.95666 -2.18274,0.95666 -1.44039,0 -7.29125,4.14253 -9.72836,6.88789 -0.93416,1.05231 -2.65697,3.80747 -3.82846,6.12257 l -2.12998,4.20927 v 118.62481 118.62481 l 2.22593,3.82661 c 2.35898,4.05532 7.92461,10.33184 9.16165,10.33184 0.40537,0 1.28075,0.48725 1.94528,1.08277 0.66454,0.59553 2.41363,1.42546 3.88687,1.84428 3.65918,1.04027 15.02141,1.0764 18.68426,0.0594 z m 110.19511,-1.80641 c 5.49454,-3.25995 10.82954,-9.03544 11.69432,-12.65988 0.25108,-1.05232 0.83951,-2.39673 1.30763,-2.98758 1.21332,-1.53145 1.21332,-235.86559 0,-237.39704 -0.46812,-0.59085 -1.05655,-1.93526 -1.30763,-2.98758 -1.02598,-4.30004 -9.20011,-12.48161 -13.53034,-13.54265 -1.05232,-0.25784 -2.15904,-0.84628 -2.45938,-1.30762 -0.74106,-1.13832 -17.29982,-1.13832 -18.04088,0 -0.30034,0.46134 -1.40706,1.04978 -2.45938,1.30762 -4.33023,1.06104 -12.50436,9.24261 -13.53034,13.54265 -0.25108,1.05232 -0.83951,2.39673 -1.30763,2.98758 -1.21332,1.53145 -1.21332,235.86559 0,237.39704 0.46812,0.59085 1.05655,1.93526 1.30763,2.98758 1.15199,4.82817 10.28692,13.16151 16.20896,14.78663 0.84186,0.23101 5.31899,0.34751 9.94918,0.25889 7.77543,-0.14882 8.70495,-0.33107 12.16786,-2.38564 z m 101.79891,1.80641 c 1.64734,-0.45738 3.48001,-1.31645 4.0726,-1.90904 0.59259,-0.59259 1.49772,-1.07743 2.01141,-1.07743 1.59021,0 7.11168,-6.29124 9.40353,-10.7145 l 2.18097,-4.20927 V 322.2003 203.95815 l -2.16901,-4.20927 c -3.2607,-6.32788 -8.20533,-11.21691 -12.75476,-12.61135 -1.05232,-0.32255 -2.39633,-0.97479 -2.98669,-1.44943 -0.63076,-0.50713 -4.12949,-0.86299 -8.48472,-0.86299 -6.86924,0 -7.78202,0.18612 -12.47934,2.54449 -6.08452,3.05485 -9.41317,6.31902 -12.43812,12.19716 l -2.25986,4.39139 V 322.2003 440.44245 l 2.18097,4.20927 c 2.29185,4.42326 7.81333,10.7145 9.40353,10.7145 0.51369,0 1.42867,0.49469 2.0333,1.09933 0.60463,0.60463 2.2651,1.43455 3.68995,1.84428 3.56952,1.02645 14.95911,1.0527 18.59624,0.0429 z"
       id="path286" />
    <path
       style="fill:#cccccc;stroke:none;stroke-width:0.765321"
       d="m 44.891877,88.96861 c 0.275211,-15.87873 0.275483,-15.880892 2.557608,-20.329262 2.707848,-5.278202 7.017301,-9.523051 12.700117,-12.50973 l 4.137394,-2.174461 69.452914,-0.218185 69.45292,-0.218184 V 40.015524 c 0,-7.426795 0.32771,-14.560899 0.72827,-15.853564 0.40054,-1.292666 1.13409,-3.986175 1.6301,-5.985577 0.49601,-1.999402 1.17827,-3.635277 1.51612,-3.635277 0.33786,0 0.81035,-0.617734 1.04998,-1.372742 1.41292,-4.4517209 12.04862,-11.6377212 17.22452,-11.6377212 1.54027,0 3.15365,-0.3531713 3.5853,-0.78482503 1.11007,-1.11006646 52.86723,-0.52703864 58.61853,0.66031903 5.96691,1.2318697 12.48951,5.6447675 15.62949,10.5742152 0.76308,1.197951 1.59725,2.350291 1.85372,2.560754 0.83655,0.686488 2.24767,5.534631 2.24767,7.72225 0,1.175127 0.3444,2.349441 0.76532,2.609589 0.46536,0.287602 0.76532,5.992819 0.76532,14.555837 v 14.082843 l 69.45292,0.221766 69.45291,0.221766 4.11292,2.161659 c 8.17232,4.295206 13.11519,10.617696 14.60613,18.682914 0.43816,2.370219 0.79665,10.100944 0.79665,17.179394 V 104.84903 H 255.92266 44.616636 Z"
       id="path325" />
  </g>
</svg>
