<svg version="1.1" xmlns="http://www.w3.org/2000/svg" xmlns:xlink="http://www.w3.org/1999/xlink" viewBox="0 0 100 100">
    <path  fill="red" 
        d="
        M 32.2  20.5 
        L 31.4  23.5 
        C 38.5  23.5,   38.8    27,     38      30.2
        L 26.5  80 
        H 39.5 
        L 42.8  65.2 
        L 45.45 62.8
        C 48.9  71.3,   49.9    82,     61      81.1
        C 64    81,     68.5    79.9,   72.7    77.9
        L 73.5  74.4
        C 61.7  78.9    62.1    70.2    54.8    53.7
        C 59    50      59      50.5    59.4    50.09
        C 65.5  55.5    74      55,     74.7    46.5
        C 75    41      70      39      65      41
        C 61    42.8    61      42.5    44.1    60.8
        L 43.8  60.8    
        L 53.2  20.2
        L 52.8  19.5
        L 32.2  20.5
        Z

        M 5 5 H 90 V 90 H 5 V 5 Z
        " />

</svg>