<?xml version="1.0" encoding="UTF-8" standalone="no"?>
<svg
   xmlns:dc="http://purl.org/dc/elements/1.1/"
   xmlns:cc="http://creativecommons.org/ns#"
   xmlns:rdf="http://www.w3.org/1999/02/22-rdf-syntax-ns#"
   xmlns:svg="http://www.w3.org/2000/svg"
   xmlns="http://www.w3.org/2000/svg"
   xmlns:sodipodi="http://sodipodi.sourceforge.net/DTD/sodipodi-0.dtd"
   xmlns:inkscape="http://www.inkscape.org/namespaces/inkscape"
   version="1.1"
   id="svg833"
   width="1308"
   height="1277.3333"
   viewBox="0 0 1308 1277.3333"
   sodipodi:docname="logout1.svg"
   inkscape:version="1.0.1 (3bc2e813f5, 2020-09-07)">
  <metadata
     id="metadata839">
    <rdf:RDF>
      <cc:Work
         rdf:about="">
        <dc:format>image/svg+xml</dc:format>
        <dc:type
           rdf:resource="http://purl.org/dc/dcmitype/StillImage" />
        <dc:title />
      </cc:Work>
    </rdf:RDF>
  </metadata>
  <defs
     id="defs837" />
  <sodipodi:namedview
     pagecolor="#ffffff"
     bordercolor="#666666"
     borderopacity="1"
     objecttolerance="10"
     gridtolerance="10"
     guidetolerance="10"
     inkscape:pageopacity="0"
     inkscape:pageshadow="2"
     inkscape:window-width="1600"
     inkscape:window-height="837"
     id="namedview835"
     showgrid="false"
     inkscape:zoom="0.36479815"
     inkscape:cx="740.08986"
     inkscape:cy="805.71085"
     inkscape:window-x="-8"
     inkscape:window-y="-8"
     inkscape:window-maximized="1"
     inkscape:current-layer="g841"
     inkscape:document-rotation="0" />
  <g
     inkscape:groupmode="layer"
     inkscape:label="Image"
     id="g841">
    <path
       style="fill:#ff0202;fill-opacity:1;stroke:#ff0000;stroke-width:1.42869"
       d=""
       id="path867" />
    <path
       style="fill:#ff0202;stroke:#f40000;stroke-width:3.64724;stroke-linecap:butt;stroke-linejoin:miter;stroke-miterlimit:4;stroke-dasharray:none;stroke-opacity:1;fill-opacity:1"
       d="m 767.09087,595.02083 h 107.70796 v 324.4374 C 865.7509,956.91 837.40981,966.60574 831.45295,966.74466 H 583.19922 v 219.35644 c 0.25488,29.6533 -25.3903,37.3394 -38.09184,28.8973 L 145.79981,990.38787 C 130.47085,979.4745 119.574,982.1958 111.6485,941.78793 l 1.31351,-815.6908 C 109.0814,94.481993 137.12378,69.099314 161.56195,65.675588 l 651.50183,2.627024 c 52.80512,-6.875811 61.7447,44.892068 61.73505,56.481008 l 1.31352,198.34027 H 768.40438 l 1.31351,-109.02147 c 0.58569,-20.89288 -14.75823,-35.51221 -31.52428,-32.8378 l -420.32376,1.31351 241.68616,133.9782 c 12.19271,4.64952 23.44948,18.63775 26.27024,42.03238 v 493.88042 l 157.62141,1.31352 c 28.03429,-3.09633 23.26701,-21.06331 24.95672,-30.21078 z"
       id="path851"
       sodipodi:nodetypes="cccccccccccccccccccccccc" />
    <path
       style="fill:#ff0202;stroke:#ff0000;stroke-width:2.89134;stroke-linecap:butt;stroke-linejoin:miter;stroke-miterlimit:4;stroke-dasharray:none;stroke-opacity:1;fill-opacity:1"
       d="m 707.98284,517.52363 308.67526,1.31352 -85.37826,90.63231 c -42.05701,99.61494 55.12503,102.38083 68.30261,86.69177 l 190.45915,-200.9673 c 17.7154,-19.80683 13.3041,-55.32043 -3.9405,-77.49719 L 1004.8365,220.66998 c -25.17437,-22.86269 -116.26701,-5.80773 -73.55666,84.06475 l 84.06476,89.3188 -306.04825,1.31351 c -76.41119,9.70252 -61.79149,120.67832 -1.31351,122.15659 z"
       id="path853"
       sodipodi:nodetypes="ccccccccccc" />
  </g>
</svg>
