<?xml version="1.0" encoding="UTF-8" standalone="no"?>
<svg
   xmlns:dc="http://purl.org/dc/elements/1.1/"
   xmlns:cc="http://creativecommons.org/ns#"
   xmlns:rdf="http://www.w3.org/1999/02/22-rdf-syntax-ns#"
   xmlns:svg="http://www.w3.org/2000/svg"
   xmlns="http://www.w3.org/2000/svg"
   xmlns:sodipodi="http://sodipodi.sourceforge.net/DTD/sodipodi-0.dtd"
   xmlns:inkscape="http://www.inkscape.org/namespaces/inkscape"
   version="1.1"
   viewBox="0 0 100 100"
   id="svg849"
   sodipodi:docname="cart-round.svg"
   inkscape:version="1.0.1 (3bc2e813f5, 2020-09-07)">
  <metadata
     id="metadata855">
    <rdf:RDF>
      <cc:Work
         rdf:about="">
        <dc:format>image/svg+xml</dc:format>
        <dc:type
           rdf:resource="http://purl.org/dc/dcmitype/StillImage" />
      </cc:Work>
    </rdf:RDF>
  </metadata>
  <defs
     id="defs853" />
  <sodipodi:namedview
     pagecolor="#ffffff"
     bordercolor="#666666"
     borderopacity="1"
     objecttolerance="10"
     gridtolerance="10"
     guidetolerance="10"
     inkscape:pageopacity="0"
     inkscape:pageshadow="2"
     inkscape:window-width="1600"
     inkscape:window-height="877"
     id="namedview851"
     showgrid="false"
     inkscape:zoom="12.423949"
     inkscape:cx="48.503197"
     inkscape:cy="57.461985"
     inkscape:window-x="-8"
     inkscape:window-y="-8"
     inkscape:window-maximized="1"
     inkscape:current-layer="g847"
     inkscape:document-rotation="0"
     inkscape:snap-nodes="false"
     inkscape:snap-grids="true"
     inkscape:snap-page="false" />
  <g
     fill="white"
     fill-rule="evenodd"
     stroke-linecap="round"
     stroke-linejoin="round"
     id="g847"
     style="fill:#46ffff;fill-opacity:1">
    <path
       d="m 13,22.576941 h 5.9 l 6.8,38.05 h -0.6 l -4.77,11.95 H 32.5 c -6.033162,5.120154 -2.411429,14.980099 5.5,14.980099 7.911429,0 11.533162,-9.859945 5.5,-14.980099 h 16 c -6.033162,5.120154 -2.411429,14.980099 5.5,14.980099 7.911429,0 11.533162,-9.859945 5.5,-14.980099 H 78 v -5 H 27.65 l 0.9,-2.05 h 46.39 l 10.36,-37.95 H 26.5 v 9.11 l -3.4,-19.11 H 13 v 5.05 z m 24.988,60 c 4.66619,-6.67e-4 4.66569,-6.995822 -5e-4,-6.995156 -4.66619,0 -4.66669,6.995156 -5e-4,6.995156 m 27.023,0 c 4.66649,-6.7e-5 4.66644,-6.99522 -5e-5,-6.995154 -4.66649,0 -4.66654,6.995154 -5e-5,6.995154"
       id="path845"
       style="fill:#ffffff;fill-opacity:1"
       sodipodi:nodetypes="ccccccsccsccccccccccccccccccc" />
  </g>
</svg>
