<?xml version="1.0" encoding="UTF-8" standalone="no"?>
<svg
   xmlns:dc="http://purl.org/dc/elements/1.1/"
   xmlns:cc="http://creativecommons.org/ns#"
   xmlns:rdf="http://www.w3.org/1999/02/22-rdf-syntax-ns#"
   xmlns:svg="http://www.w3.org/2000/svg"
   xmlns="http://www.w3.org/2000/svg"
   xmlns:sodipodi="http://sodipodi.sourceforge.net/DTD/sodipodi-0.dtd"
   xmlns:inkscape="http://www.inkscape.org/namespaces/inkscape"
   version="1.1"
   viewBox="0 0 100 100"
   id="svg22"
   sodipodi:docname="whats.svg"
   inkscape:version="1.0.1 (3bc2e813f5, 2020-09-07)">
  <metadata
     id="metadata28">
    <rdf:RDF>
      <cc:Work
         rdf:about="">
        <dc:format>image/svg+xml</dc:format>
        <dc:type
           rdf:resource="http://purl.org/dc/dcmitype/StillImage" />
      </cc:Work>
    </rdf:RDF>
  </metadata>
  <defs
     id="defs26" />
  <sodipodi:namedview
     pagecolor="#ffffff"
     bordercolor="#666666"
     borderopacity="1"
     objecttolerance="10"
     gridtolerance="10"
     guidetolerance="10"
     inkscape:pageopacity="0"
     inkscape:pageshadow="2"
     inkscape:window-width="1366"
     inkscape:window-height="705"
     id="namedview24"
     showgrid="false"
     inkscape:zoom="3.8042345"
     inkscape:cx="50"
     inkscape:cy="50"
     inkscape:window-x="-8"
     inkscape:window-y="-8"
     inkscape:window-maximized="1"
     inkscape:current-layer="svg22" />
  <path
     style="fill:#959595;fill-rule:evenodd;stroke:#ff6347;stroke-width:0"
     d="m 50.099837,96.3 a 46.3,46.3 0 1 1 0.1,-9.9e-5 m -29.1,-16.999902 4,-15.499997 a 29,28.999998 0 1 1 12,11.5 l -16,3.999997 m 7,-6.999998 2,-8.999999 a 24.1,24.1 0 1 1 7,6.799998 z M 39.199837,36.3 c -14.1,7.999999 15.9,37.000001 25.4,23.800001 1,-4.800002 -0.5,-3.800002 -4.5,-6.000003 -2,-0.799996 -2,-2.299996 -4.5,1.200001 -2,2.500001 -1.5,2.000001 -3.5,1.3 -1,-0.8 -4,-1.3 -8.5,-7.299998 -0.5,-1.200001 -1.5,-1.500001 0,-3.000001 3.5,-3.000001 0.8,-4.099998 0.6,-5.699998 -1.5,-5.300002 -3.1,-4.300002 -5,-4.300002 z"
     id="path20" />
</svg>
