<?xml version="1.0" encoding="UTF-8" standalone="no"?>
<svg
   xmlns:dc="http://purl.org/dc/elements/1.1/"
   xmlns:cc="http://creativecommons.org/ns#"
   xmlns:rdf="http://www.w3.org/1999/02/22-rdf-syntax-ns#"
   xmlns:svg="http://www.w3.org/2000/svg"
   xmlns="http://www.w3.org/2000/svg"
   xmlns:sodipodi="http://sodipodi.sourceforge.net/DTD/sodipodi-0.dtd"
   xmlns:inkscape="http://www.inkscape.org/namespaces/inkscape"
   version="1.1"
   viewBox="0 0 100 100"
   id="svg42"
   sodipodi:docname="twitter.svg"
   inkscape:version="1.0.1 (3bc2e813f5, 2020-09-07)">
  <metadata
     id="metadata48">
    <rdf:RDF>
      <cc:Work
         rdf:about="">
        <dc:format>image/svg+xml</dc:format>
        <dc:type
           rdf:resource="http://purl.org/dc/dcmitype/StillImage" />
      </cc:Work>
    </rdf:RDF>
  </metadata>
  <defs
     id="defs46" />
  <sodipodi:namedview
     pagecolor="#ffffff"
     bordercolor="#666666"
     borderopacity="1"
     objecttolerance="10"
     gridtolerance="10"
     guidetolerance="10"
     inkscape:pageopacity="0"
     inkscape:pageshadow="2"
     inkscape:window-width="1366"
     inkscape:window-height="705"
     id="namedview44"
     showgrid="false"
     inkscape:zoom="5.38"
     inkscape:cx="101.57993"
     inkscape:cy="36.354005"
     inkscape:window-x="-8"
     inkscape:window-y="-8"
     inkscape:window-maximized="1"
     inkscape:current-layer="svg42" />
  <path
     style="fill:#959595;fill-rule:evenodd;stroke:#0099ff;stroke-width:0;stroke-linecap:round;stroke-linejoin:round"
     d="M 31.536431,31.592359 C 43.908178,45.021933 55.248947,43.78228 55.661338,43.78228 52.671499,35.724535 64.527757,23.328005 75.353036,33.141925 c 3.608426,-0.413218 5.670384,-1.652871 7.216852,-2.78922 -0.515489,3.305742 -4.639405,6.404875 -5.154894,6.404875 1.546468,0 4.639405,-0.516523 6.701363,-1.549567 -1.546469,2.582611 -4.639405,5.165221 -5.87658,5.681743 0.721685,35.123503 -36.909046,40.288724 -50.208674,29.235151 9.691202,0.723131 14.846096,-2.892524 17.423544,-4.958612 -10.825279,0.516522 -11.856258,-9.81392 -11.340768,-7.747832 1.546468,0.309914 3.608426,0.516523 5.154894,-0.516522 -8.247831,-1.549566 -9.7943,-9.297397 -9.27881,-11.363486 1.546468,1.549566 4.639405,1.549566 5.154894,1.239653 C 28.958984,44.71202 29.474473,33.658447 31.536431,31.592359 Z m 64.951673,18.584465 a 46.394052,46.486989 0 1 0 0,0.01033"
     id="path40" />
</svg>
